<svg width="24" height="24" viewBox="0 0 24 24" fill="none" xmlns="http://www.w3.org/2000/svg">
<path d="M12 22C17.5228 22 22 17.5228 22 12C22 6.47715 17.5228 2 12 2C6.47715 2 2 6.47715 2 12C2 17.5228 6.47715 22 12 22Z" stroke="#CCCCCC" stroke-width="1.4" stroke-linecap="round" stroke-linejoin="round"/>
<path d="M21.75 12.84C18.25 11.91 15.12 12.02 12.81 12.84C10.23 13.76 7.8 15.7 5.37 19.16M8.56 2.75C12.93 8.78 14.58 12.17 16.59 20.47C14.6689 12.618 13.0487 8.63167 8.56 2.75ZM19.13 5.09C15.41 9.44 10.19 10.75 2.25 10.94C11.636 10.5785 15.1932 9.19969 19.13 5.09Z" stroke="#CCCCCC" stroke-width="1.4" stroke-linecap="round" stroke-linejoin="round"/>
</svg>
